<?xml version="1.0" encoding="iso-8859-1"?>
<!-- Generator: Adobe Illustrator 19.0.0, SVG Export Plug-In . SVG Version: 6.00 Build 0)  -->
<svg version="1.1" id="Capa_1" xmlns="http://www.w3.org/2000/svg" xmlns:xlink="http://www.w3.org/1999/xlink" x="0px" y="0px"
	 viewBox="0 0 352.244 352.244" style="enable-background:new 0 0 352.244 352.244;" xml:space="preserve">
<g>
	<polygon style="fill:#5886C5;" points="99.054,85.187 70.084,56.218 119.606,56.218 119.606,40.218 70.084,40.218 98.99,11.311 
		87.678,0 39.461,48.218 87.742,96.5 	"/>
	<polygon style="fill:#5886C5;" points="268.751,85.187 280.063,96.5 328.346,48.218 280.128,0 268.815,11.311 297.722,40.218 
		247.792,40.218 247.792,56.218 297.722,56.218 	"/>
</g>
<path style="fill:#F9E0D2;" d="M272.41,186.179c-27.97,0-40.53,14.045-56.512,30.049V64.244c0-17.601-14.4-32-32-32
	s-32,14.399-32,32v70.143c-10.676-13.104-29.314-15.752-43.152-5.808l-68.912,39.888c-9.519,5.536-15.935,15.792-15.935,27.568
	v52.624c0,57.216,46.368,103.584,103.584,103.584c27.712,0,52.816-10.944,71.391-28.672L308.49,214.099
	C323.539,199.103,293.923,186.179,272.41,186.179z"/>
<g>
	<path style="fill:#F6D2BF;" d="M183.866,62.722v87.111c0,10.577,4.202,20.72,11.681,28.198l9.521,9.52
		c6.614,5.874,10.799,14.432,10.799,23.919V64.244c0-1.83-0.156-3.627-0.455-5.376C212.227,40.25,183.866,43.834,183.866,62.722z"/>
	<path style="fill:#F6D2BF;" d="M290.806,188.92l-115.43,115.43c-20.238,20.238-47.686,31.607-76.306,31.607H71.87
		c16.076,10.262,35.121,16.287,55.611,16.287c54.764,0,71.331-28.612,181.008-138.143
		C319.413,203.214,306.768,193.47,290.806,188.92z"/>
</g>
<g>
</g>
<g>
</g>
<g>
</g>
<g>
</g>
<g>
</g>
<g>
</g>
<g>
</g>
<g>
</g>
<g>
</g>
<g>
</g>
<g>
</g>
<g>
</g>
<g>
</g>
<g>
</g>
<g>
</g>
</svg>
